# 3ds Max Wavefront OBJ Exporter v0.97b - (c)2007 guruware
# File Created: 01.11.2010 16:51:27

mtllib rocket.mtl

#
# object rocket
#

v  0.0755 -0.0000 -0.3838
v  0.0710 0.0258 -0.3838
v  0.0971 0.0353 0.3512
v  0.1033 -0.0000 0.3512
v  0.0579 0.0486 -0.3838
v  0.0791 0.0664 0.3512
v  0.0378 0.0654 -0.3838
v  0.0517 0.0895 0.3512
v  0.0131 0.0744 -0.3838
v  0.0179 0.1017 0.3512
v  -0.0131 0.0744 -0.3838
v  -0.0179 0.1017 0.3512
v  -0.0378 0.0654 -0.3838
v  -0.0517 0.0895 0.3512
v  -0.0579 0.0486 -0.3838
v  -0.0791 0.0664 0.3512
v  -0.0710 0.0258 -0.3838
v  -0.0971 0.0353 0.3512
v  -0.0755 0.0000 -0.3838
v  -0.1033 -0.0000 0.3512
v  -0.0710 -0.0258 -0.3838
v  -0.0971 -0.0353 0.3512
v  -0.0579 -0.0486 -0.3838
v  -0.0791 -0.0664 0.3512
v  -0.0378 -0.0654 -0.3838
v  -0.0517 -0.0895 0.3512
v  -0.0131 -0.0744 -0.3838
v  -0.0179 -0.1017 0.3512
v  0.0131 -0.0744 -0.3838
v  0.0179 -0.1017 0.3512
v  0.0378 -0.0654 -0.3838
v  0.0517 -0.0895 0.3512
v  0.0579 -0.0486 -0.3838
v  0.0791 -0.0664 0.3512
v  0.0710 -0.0258 -0.3838
v  0.0971 -0.0353 0.3512
# 36 vertices

vn 0.9993 -0.0000 -0.0378
vn 0.9390 0.3418 -0.0378
vn 0.7655 0.6423 -0.0378
vn 0.4996 0.8654 -0.0378
vn 0.1735 0.9841 -0.0378
vn -0.1735 0.9841 -0.0378
vn -0.4996 0.8654 -0.0378
vn -0.7655 0.6423 -0.0378
vn -0.9390 0.3418 -0.0378
vn -0.9993 -0.0000 -0.0378
vn -0.9993 0.0000 -0.0378
vn -0.9390 -0.3418 -0.0378
vn -0.7655 -0.6423 -0.0378
vn -0.4996 -0.8654 -0.0378
vn -0.1735 -0.9841 -0.0378
vn 0.1735 -0.9841 -0.0378
vn 0.4996 -0.8654 -0.0378
vn 0.7655 -0.6423 -0.0378
vn 0.9390 -0.3418 -0.0378
vn 0.0000 0.0000 -1.0000
vn -0.0000 0.0000 -1.0000
vn 0.0000 -0.0000 1.0000
# 22 vertex normals

vt 0.7500 0.0000 1.0000
vt 0.8056 0.0000 1.0000
vt 0.8056 1.0000 1.0000
vt 0.7500 1.0000 1.0000
vt 0.8611 0.0000 1.0000
vt 0.8611 1.0000 1.0000
vt 0.9167 0.0000 1.0000
vt 0.9167 1.0000 1.0000
vt 0.9722 0.0000 1.0000
vt 0.9722 1.0000 1.0000
vt 1.0278 0.0000 1.0000
vt 1.0278 1.0000 1.0000
vt 0.0278 0.0000 1.0000
vt 0.0833 0.0000 1.0000
vt 0.0833 1.0000 1.0000
vt 0.0278 1.0000 1.0000
vt 0.1389 0.0000 1.0000
vt 0.1389 1.0000 1.0000
vt 0.1944 0.0000 1.0000
vt 0.1944 1.0000 1.0000
vt 0.2500 0.0000 1.0000
vt 0.2500 1.0000 1.0000
vt 0.3056 0.0000 1.0000
vt 0.3056 1.0000 1.0000
vt 0.3611 0.0000 1.0000
vt 0.3611 1.0000 1.0000
vt 0.4167 0.0000 1.0000
vt 0.4167 1.0000 1.0000
vt 0.4722 0.0000 1.0000
vt 0.4722 1.0000 1.0000
vt 0.5278 0.0000 1.0000
vt 0.5278 1.0000 1.0000
vt 0.5833 0.0000 1.0000
vt 0.5833 1.0000 1.0000
vt 0.6389 0.0000 1.0000
vt 0.6389 1.0000 1.0000
vt 0.6944 0.0000 1.0000
vt 0.6944 1.0000 1.0000
vt 0.8214 0.8830 -0.2500
vt 0.9330 0.7500 -0.2500
vt 0.9924 0.5868 -0.2500
vt 0.9924 0.4132 -0.2500
vt 0.9330 0.2500 -0.2500
vt 0.8214 0.1170 -0.2500
vt 0.6710 0.0302 -0.2500
vt 0.5000 0.0000 -0.2500
vt 0.3290 0.0302 -0.2500
vt 0.1786 0.1170 -0.2500
vt 0.0670 0.2500 -0.2500
vt 0.0076 0.4132 -0.2500
vt 0.0076 0.5868 -0.2500
vt 0.0670 0.7500 -0.2500
vt 0.1786 0.8830 -0.2500
vt 0.3290 0.9698 -0.2500
vt 0.5000 1.0000 -0.2500
vt 0.6710 0.9698 -0.2500
vt 0.3290 0.9698 0.2500
vt 0.1786 0.8830 0.2500
vt 0.0670 0.7500 0.2500
vt 0.0076 0.5868 0.2500
vt 0.0076 0.4132 0.2500
vt 0.0670 0.2500 0.2500
vt 0.1786 0.1170 0.2500
vt 0.3290 0.0302 0.2500
vt 0.5000 0.0000 0.2500
vt 0.6710 0.0302 0.2500
vt 0.8214 0.1170 0.2500
vt 0.9330 0.2500 0.2500
vt 0.9924 0.4132 0.2500
vt 0.9924 0.5868 0.2500
vt 0.9330 0.7500 0.2500
vt 0.8214 0.8830 0.2500
vt 0.6710 0.9698 0.2500
vt 0.5000 1.0000 0.2500
# 74 texture coords

g rocket
usemtl wire_153228214
f 1/1/1 2/2/2 3/3/2 
f 3/3/2 4/4/1 1/1/1 
f 2/2/2 5/5/3 6/6/3 
f 6/6/3 3/3/2 2/2/2 
f 5/5/3 7/7/4 8/8/4 
f 8/8/4 6/6/3 5/5/3 
f 7/7/4 9/9/5 10/10/5 
f 10/10/5 8/8/4 7/7/4 
f 9/9/5 11/11/6 12/12/6 
f 12/12/6 10/10/5 9/9/5 
f 11/13/6 13/14/7 14/15/7 
f 14/15/7 12/16/6 11/13/6 
f 13/14/7 15/17/8 16/18/8 
f 16/18/8 14/15/7 13/14/7 
f 15/17/8 17/19/9 18/20/9 
f 18/20/9 16/18/8 15/17/8 
f 17/19/9 19/21/10 20/22/11 
f 20/22/11 18/20/9 17/19/9 
f 19/21/10 21/23/12 22/24/12 
f 22/24/12 20/22/11 19/21/10 
f 21/23/12 23/25/13 24/26/13 
f 24/26/13 22/24/12 21/23/12 
f 23/25/13 25/27/14 26/28/14 
f 26/28/14 24/26/13 23/25/13 
f 25/27/14 27/29/15 28/30/15 
f 28/30/15 26/28/14 25/27/14 
f 27/29/15 29/31/16 30/32/16 
f 30/32/16 28/30/15 27/29/15 
f 29/31/16 31/33/17 32/34/17 
f 32/34/17 30/32/16 29/31/16 
f 31/33/17 33/35/18 34/36/18 
f 34/36/18 32/34/17 31/33/17 
f 33/35/18 35/37/19 36/38/19 
f 36/38/19 34/36/18 33/35/18 
f 35/37/19 1/1/1 4/4/1 
f 4/4/1 36/38/19 35/37/19 
f 33/39/20 31/40/20 29/41/20 
f 29/41/20 27/42/21 25/43/21 
f 25/43/21 23/44/20 21/45/20 
f 29/41/20 25/43/21 21/45/20 
f 21/45/20 19/46/21 17/47/20 
f 17/47/20 15/48/20 13/49/20 
f 21/45/20 17/47/20 13/49/20 
f 13/49/20 11/50/20 9/51/21 
f 9/51/21 7/52/20 5/53/21 
f 13/49/20 9/51/21 5/53/21 
f 21/45/20 13/49/20 5/53/21 
f 29/41/20 21/45/20 5/53/21 
f 5/53/21 2/54/21 1/55/21 
f 29/41/20 5/53/21 1/55/21 
f 33/39/20 29/41/20 1/55/21 
f 35/56/21 33/39/20 1/55/21 
f 3/57/22 6/58/22 8/59/22 
f 8/59/22 10/60/22 12/61/22 
f 12/61/22 14/62/22 16/63/22 
f 8/59/22 12/61/22 16/63/22 
f 16/63/22 18/64/22 20/65/22 
f 20/65/22 22/66/22 24/67/22 
f 16/63/22 20/65/22 24/67/22 
f 24/67/22 26/68/22 28/69/22 
f 28/69/22 30/70/22 32/71/22 
f 24/67/22 28/69/22 32/71/22 
f 16/63/22 24/67/22 32/71/22 
f 8/59/22 16/63/22 32/71/22 
f 32/71/22 34/72/22 36/73/22 
f 8/59/22 32/71/22 36/73/22 
f 3/57/22 8/59/22 36/73/22 
f 4/74/22 3/57/22 36/73/22 
# 68 faces

#
# object warhead
#

v  -0.0000 -0.0000 0.3503
v  0.0953 0.0255 0.3503
v  0.0987 -0.0000 0.3503
v  0.0855 0.0494 0.3503
v  0.0698 0.0698 0.3503
v  0.0494 0.0855 0.3503
v  0.0255 0.0953 0.3503
v  -0.0000 0.0987 0.3503
v  -0.0255 0.0953 0.3503
v  -0.0494 0.0855 0.3503
v  -0.0698 0.0698 0.3503
v  -0.0855 0.0494 0.3503
v  -0.0953 0.0255 0.3503
v  -0.0987 0.0000 0.3503
v  -0.0953 -0.0255 0.3503
v  -0.0855 -0.0494 0.3503
v  -0.0698 -0.0698 0.3503
v  -0.0494 -0.0855 0.3503
v  -0.0255 -0.0953 0.3503
v  -0.0000 -0.0987 0.3503
v  0.0255 -0.0953 0.3503
v  0.0494 -0.0855 0.3503
v  0.0698 -0.0698 0.3503
v  0.0855 -0.0494 0.3503
v  0.0953 -0.0255 0.3503
v  0.0763 0.0204 0.3827
v  0.0790 -0.0000 0.3827
v  0.0684 0.0395 0.3827
v  0.0558 0.0558 0.3827
v  0.0395 0.0684 0.3827
v  0.0204 0.0763 0.3827
v  -0.0000 0.0790 0.3827
v  -0.0204 0.0763 0.3827
v  -0.0395 0.0684 0.3827
v  -0.0558 0.0558 0.3827
v  -0.0684 0.0395 0.3827
v  -0.0763 0.0204 0.3827
v  -0.0790 0.0000 0.3827
v  -0.0763 -0.0204 0.3827
v  -0.0684 -0.0395 0.3827
v  -0.0558 -0.0558 0.3827
v  -0.0395 -0.0684 0.3827
v  -0.0204 -0.0763 0.3827
v  -0.0000 -0.0790 0.3827
v  0.0204 -0.0763 0.3827
v  0.0395 -0.0684 0.3827
v  0.0558 -0.0558 0.3827
v  0.0684 -0.0395 0.3827
v  0.0763 -0.0204 0.3827
v  0.0572 0.0153 0.4152
v  0.0592 -0.0000 0.4152
v  0.0513 0.0296 0.4152
v  0.0419 0.0419 0.4152
v  0.0296 0.0513 0.4152
v  0.0153 0.0572 0.4152
v  -0.0000 0.0592 0.4152
v  -0.0153 0.0572 0.4152
v  -0.0296 0.0513 0.4152
v  -0.0419 0.0419 0.4152
v  -0.0513 0.0296 0.4152
v  -0.0572 0.0153 0.4152
v  -0.0592 0.0000 0.4152
v  -0.0572 -0.0153 0.4152
v  -0.0513 -0.0296 0.4152
v  -0.0419 -0.0419 0.4152
v  -0.0296 -0.0513 0.4152
v  -0.0153 -0.0572 0.4152
v  -0.0000 -0.0592 0.4152
v  0.0153 -0.0572 0.4152
v  0.0296 -0.0513 0.4152
v  0.0419 -0.0419 0.4152
v  0.0513 -0.0296 0.4152
v  0.0572 -0.0153 0.4152
v  0.0381 0.0102 0.4477
v  0.0395 -0.0000 0.4477
v  0.0342 0.0197 0.4477
v  0.0279 0.0279 0.4477
v  0.0197 0.0342 0.4477
v  0.0102 0.0381 0.4477
v  -0.0000 0.0395 0.4477
v  -0.0102 0.0381 0.4477
v  -0.0197 0.0342 0.4477
v  -0.0279 0.0279 0.4477
v  -0.0342 0.0197 0.4477
v  -0.0381 0.0102 0.4477
v  -0.0395 -0.0000 0.4477
v  -0.0381 -0.0102 0.4477
v  -0.0342 -0.0197 0.4477
v  -0.0279 -0.0279 0.4477
v  -0.0197 -0.0342 0.4477
v  -0.0102 -0.0381 0.4477
v  -0.0000 -0.0395 0.4477
v  0.0102 -0.0381 0.4477
v  0.0197 -0.0342 0.4477
v  0.0279 -0.0279 0.4477
v  0.0342 -0.0197 0.4477
v  0.0381 -0.0102 0.4477
v  0.0191 0.0051 0.4801
v  0.0197 -0.0000 0.4801
v  0.0171 0.0099 0.4801
v  0.0140 0.0140 0.4801
v  0.0099 0.0171 0.4801
v  0.0051 0.0191 0.4801
v  -0.0000 0.0197 0.4801
v  -0.0051 0.0191 0.4801
v  -0.0099 0.0171 0.4801
v  -0.0140 0.0140 0.4801
v  -0.0171 0.0099 0.4801
v  -0.0191 0.0051 0.4801
v  -0.0197 -0.0000 0.4801
v  -0.0191 -0.0051 0.4801
v  -0.0171 -0.0099 0.4801
v  -0.0140 -0.0140 0.4801
v  -0.0099 -0.0171 0.4801
v  -0.0051 -0.0191 0.4801
v  -0.0000 -0.0197 0.4801
v  0.0051 -0.0191 0.4801
v  0.0099 -0.0171 0.4801
v  0.0140 -0.0140 0.4801
v  0.0171 -0.0099 0.4801
v  0.0191 -0.0051 0.4801
v  -0.0000 -0.0000 0.5126
# 122 vertices

vn 0.0000 0.0000 -1.0000
vn 0.8543 -0.0000 0.5197
vn 0.8252 0.2211 0.5197
vn 0.7399 0.4272 0.5197
vn 0.6041 0.6041 0.5197
vn 0.4272 0.7399 0.5197
vn 0.2211 0.8252 0.5197
vn 0.0000 0.8543 0.5197
vn -0.2211 0.8252 0.5197
vn -0.4272 0.7399 0.5197
vn -0.6041 0.6041 0.5197
vn -0.7399 0.4272 0.5197
vn -0.8252 0.2211 0.5197
vn -0.8543 0.0000 0.5197
vn -0.8252 -0.2211 0.5197
vn -0.7399 -0.4272 0.5197
vn -0.6041 -0.6041 0.5197
vn -0.4272 -0.7399 0.5197
vn -0.2211 -0.8252 0.5197
vn -0.0000 -0.8543 0.5197
vn 0.2211 -0.8252 0.5197
vn 0.4272 -0.7399 0.5197
vn 0.6041 -0.6041 0.5197
vn 0.7399 -0.4272 0.5197
vn 0.8252 -0.2211 0.5197
vn -0.0000 0.8543 0.5197
vn 0.8490 0.1118 0.5165
vn 0.8490 -0.1118 0.5165
vn 0.7911 0.3277 0.5165
vn 0.6794 0.5213 0.5165
vn 0.5213 0.6794 0.5165
vn 0.3277 0.7911 0.5165
vn 0.1118 0.8490 0.5165
vn -0.1118 0.8490 0.5165
vn -0.3277 0.7911 0.5165
vn -0.5213 0.6794 0.5165
vn -0.6794 0.5213 0.5165
vn -0.7911 0.3277 0.5165
vn -0.8490 0.1118 0.5165
vn -0.8490 -0.1118 0.5165
vn -0.7911 -0.3277 0.5165
vn -0.6794 -0.5213 0.5165
vn -0.5213 -0.6794 0.5165
vn -0.3277 -0.7911 0.5165
vn -0.1118 -0.8490 0.5165
vn 0.1118 -0.8490 0.5165
vn 0.3277 -0.7911 0.5165
vn 0.5213 -0.6794 0.5165
vn 0.6794 -0.5213 0.5165
vn 0.7911 -0.3277 0.5165
vn 1.0000 0.0000 -0.0000
# 51 vertex normals

vt 0.5000 0.0000 0.0000
vt 0.7917 0.0000 1.0000
vt 0.7500 0.0000 1.0000
vt 0.8333 0.0000 1.0000
vt 0.8750 0.0000 1.0000
vt 0.9167 0.0000 1.0000
vt 0.9583 0.0000 1.0000
vt 1.0000 0.0000 1.0000
vt 0.0417 0.0000 1.0000
vt 0.0000 0.0000 1.0000
vt 0.0833 0.0000 1.0000
vt 0.1250 0.0000 1.0000
vt 0.1667 0.0000 1.0000
vt 0.2083 0.0000 1.0000
vt 0.2500 0.0000 1.0000
vt 0.2917 0.0000 1.0000
vt 0.3333 0.0000 1.0000
vt 0.3750 0.0000 1.0000
vt 0.4167 0.0000 1.0000
vt 0.4583 0.0000 1.0000
vt 0.5000 0.0000 1.0000
vt 0.5417 0.0000 1.0000
vt 0.5833 0.0000 1.0000
vt 0.6250 0.0000 1.0000
vt 0.6667 0.0000 1.0000
vt 0.7083 0.0000 1.0000
vt 0.7917 0.2000 0.8000
vt 0.7500 0.2000 0.8000
vt 0.8333 0.2000 0.8000
vt 0.8750 0.2000 0.8000
vt 0.9167 0.2000 0.8000
vt 0.9583 0.2000 0.8000
vt 1.0000 0.2000 0.8000
vt 0.0417 0.2000 0.8000
vt 0.0000 0.2000 0.8000
vt 0.0833 0.2000 0.8000
vt 0.1250 0.2000 0.8000
vt 0.1667 0.2000 0.8000
vt 0.2083 0.2000 0.8000
vt 0.2500 0.2000 0.8000
vt 0.2917 0.2000 0.8000
vt 0.3333 0.2000 0.8000
vt 0.3750 0.2000 0.8000
vt 0.4167 0.2000 0.8000
vt 0.4583 0.2000 0.8000
vt 0.5000 0.2000 0.8000
vt 0.5417 0.2000 0.8000
vt 0.5833 0.2000 0.8000
vt 0.6250 0.2000 0.8000
vt 0.6667 0.2000 0.8000
vt 0.7083 0.2000 0.8000
vt 0.7917 0.4000 0.6000
vt 0.7500 0.4000 0.6000
vt 0.8333 0.4000 0.6000
vt 0.8750 0.4000 0.6000
vt 0.9167 0.4000 0.6000
vt 0.9583 0.4000 0.6000
vt 1.0000 0.4000 0.6000
vt 0.0417 0.4000 0.6000
vt -0.0000 0.4000 0.6000
vt 0.0833 0.4000 0.6000
vt 0.1250 0.4000 0.6000
vt 0.1667 0.4000 0.6000
vt 0.2083 0.4000 0.6000
vt 0.2500 0.4000 0.6000
vt 0.2917 0.4000 0.6000
vt 0.3333 0.4000 0.6000
vt 0.3750 0.4000 0.6000
vt 0.4167 0.4000 0.6000
vt 0.4583 0.4000 0.6000
vt 0.5000 0.4000 0.6000
vt 0.5417 0.4000 0.6000
vt 0.5833 0.4000 0.6000
vt 0.6250 0.4000 0.6000
vt 0.6667 0.4000 0.6000
vt 0.7083 0.4000 0.6000
vt 0.7917 0.6000 0.4000
vt 0.7500 0.6000 0.4000
vt 0.8333 0.6000 0.4000
vt 0.8750 0.6000 0.4000
vt 0.9167 0.6000 0.4000
vt 0.9583 0.6000 0.4000
vt 1.0000 0.6000 0.4000
vt 0.0417 0.6000 0.4000
vt 0.0000 0.6000 0.4000
vt 0.0833 0.6000 0.4000
vt 0.1250 0.6000 0.4000
vt 0.1667 0.6000 0.4000
vt 0.2083 0.6000 0.4000
vt 0.2500 0.6000 0.4000
vt 0.2917 0.6000 0.4000
vt 0.3333 0.6000 0.4000
vt 0.3750 0.6000 0.4000
vt 0.4167 0.6000 0.4000
vt 0.4583 0.6000 0.4000
vt 0.5000 0.6000 0.4000
vt 0.5417 0.6000 0.4000
vt 0.5833 0.6000 0.4000
vt 0.6250 0.6000 0.4000
vt 0.6667 0.6000 0.4000
vt 0.7083 0.6000 0.4000
vt 0.7917 0.8000 0.2000
vt 0.7500 0.8000 0.2000
vt 0.8333 0.8000 0.2000
vt 0.8750 0.8000 0.2000
vt 0.9167 0.8000 0.2000
vt 0.9583 0.8000 0.2000
vt 1.0000 0.8000 0.2000
vt 0.0417 0.8000 0.2000
vt 0.0000 0.8000 0.2000
vt 0.0833 0.8000 0.2000
vt 0.1250 0.8000 0.2000
vt 0.1667 0.8000 0.2000
vt 0.2083 0.8000 0.2000
vt 0.2500 0.8000 0.2000
vt 0.2917 0.8000 0.2000
vt 0.3333 0.8000 0.2000
vt 0.3750 0.8000 0.2000
vt 0.4167 0.8000 0.2000
vt 0.4583 0.8000 0.2000
vt 0.5000 0.8000 0.2000
vt 0.5417 0.8000 0.2000
vt 0.5833 0.8000 0.2000
vt 0.6250 0.8000 0.2000
vt 0.6667 0.8000 0.2000
vt 0.7083 0.8000 0.2000
vt 0.5000 1.0000 0.0000
# 127 texture coords

g warhead
usemtl wire_228214153
f 37/75/23 38/76/23 39/77/23 
f 37/75/23 40/78/23 38/76/23 
f 37/75/23 41/79/23 40/78/23 
f 37/75/23 42/80/23 41/79/23 
f 37/75/23 43/81/23 42/80/23 
f 37/75/23 44/82/23 43/81/23 
f 37/75/23 45/83/23 44/84/23 
f 37/75/23 46/85/23 45/83/23 
f 37/75/23 47/86/23 46/85/23 
f 37/75/23 48/87/23 47/86/23 
f 37/75/23 49/88/23 48/87/23 
f 37/75/23 50/89/23 49/88/23 
f 37/75/23 51/90/23 50/89/23 
f 37/75/23 52/91/23 51/90/23 
f 37/75/23 53/92/23 52/91/23 
f 37/75/23 54/93/23 53/92/23 
f 37/75/23 55/94/23 54/93/23 
f 37/75/23 56/95/23 55/94/23 
f 37/75/23 57/96/23 56/95/23 
f 37/75/23 58/97/23 57/96/23 
f 37/75/23 59/98/23 58/97/23 
f 37/75/23 60/99/23 59/98/23 
f 37/75/23 61/100/23 60/99/23 
f 37/75/23 39/77/23 61/100/23 
f 39/77/24 62/101/25 63/102/24 
f 39/77/24 38/76/25 62/101/25 
f 38/76/25 64/103/26 62/101/25 
f 38/76/25 40/78/26 64/103/26 
f 40/78/26 65/104/27 64/103/26 
f 40/78/26 41/79/27 65/104/27 
f 41/79/27 66/105/28 65/104/27 
f 41/79/27 42/80/28 66/105/28 
f 42/80/28 67/106/29 66/105/28 
f 42/80/28 43/81/29 67/106/29 
f 43/81/29 68/107/30 67/106/29 
f 43/81/29 44/82/30 68/107/30 
f 44/84/30 69/108/31 68/109/30 
f 44/84/30 45/83/31 69/108/31 
f 45/83/31 70/110/32 69/108/31 
f 45/83/31 46/85/32 70/110/32 
f 46/85/32 71/111/33 70/110/32 
f 46/85/32 47/86/33 71/111/33 
f 47/86/33 72/112/34 71/111/33 
f 47/86/33 48/87/34 72/112/34 
f 48/87/34 73/113/35 72/112/34 
f 48/87/34 49/88/35 73/113/35 
f 49/88/35 74/114/36 73/113/35 
f 49/88/35 50/89/36 74/114/36 
f 50/89/36 75/115/37 74/114/36 
f 50/89/36 51/90/37 75/115/37 
f 51/90/37 76/116/38 75/115/37 
f 51/90/37 52/91/38 76/116/38 
f 52/91/38 77/117/39 76/116/38 
f 52/91/38 53/92/39 77/117/39 
f 53/92/39 78/118/40 77/117/39 
f 53/92/39 54/93/40 78/118/40 
f 54/93/40 79/119/41 78/118/40 
f 54/93/40 55/94/41 79/119/41 
f 55/94/41 80/120/42 79/119/41 
f 55/94/41 56/95/42 80/120/42 
f 56/95/42 81/121/43 80/120/42 
f 56/95/42 57/96/43 81/121/43 
f 57/96/43 82/122/44 81/121/43 
f 57/96/43 58/97/44 82/122/44 
f 58/97/44 83/123/45 82/122/44 
f 58/97/44 59/98/45 83/123/45 
f 59/98/45 84/124/46 83/123/45 
f 59/98/45 60/99/46 84/124/46 
f 60/99/46 85/125/47 84/124/46 
f 60/99/46 61/100/47 85/125/47 
f 61/100/47 63/102/24 85/125/47 
f 61/100/47 39/77/24 63/102/24 
f 63/102/24 86/126/25 87/127/24 
f 63/102/24 62/101/25 86/126/25 
f 62/101/25 88/128/26 86/126/25 
f 62/101/25 64/103/26 88/128/26 
f 64/103/26 89/129/27 88/128/26 
f 64/103/26 65/104/27 89/129/27 
f 65/104/27 90/130/28 89/129/27 
f 65/104/27 66/105/28 90/130/28 
f 66/105/28 91/131/29 90/130/28 
f 66/105/28 67/106/29 91/131/29 
f 67/106/29 92/132/48 91/131/29 
f 67/106/29 68/107/30 92/132/48 
f 68/109/30 93/133/31 92/134/48 
f 68/109/30 69/108/31 93/133/31 
f 69/108/31 94/135/32 93/133/31 
f 69/108/31 70/110/32 94/135/32 
f 70/110/32 95/136/33 94/135/32 
f 70/110/32 71/111/33 95/136/33 
f 71/111/33 96/137/34 95/136/33 
f 71/111/33 72/112/34 96/137/34 
f 72/112/34 97/138/35 96/137/34 
f 72/112/34 73/113/35 97/138/35 
f 73/113/35 98/139/36 97/138/35 
f 73/113/35 74/114/36 98/139/36 
f 74/114/36 99/140/37 98/139/36 
f 74/114/36 75/115/37 99/140/37 
f 75/115/37 100/141/38 99/140/37 
f 75/115/37 76/116/38 100/141/38 
f 76/116/38 101/142/39 100/141/38 
f 76/116/38 77/117/39 101/142/39 
f 77/117/39 102/143/40 101/142/39 
f 77/117/39 78/118/40 102/143/40 
f 78/118/40 103/144/41 102/143/40 
f 78/118/40 79/119/41 103/144/41 
f 79/119/41 104/145/42 103/144/41 
f 79/119/41 80/120/42 104/145/42 
f 80/120/42 105/146/43 104/145/42 
f 80/120/42 81/121/43 105/146/43 
f 81/121/43 106/147/44 105/146/43 
f 81/121/43 82/122/44 106/147/44 
f 82/122/44 107/148/45 106/147/44 
f 82/122/44 83/123/45 107/148/45 
f 83/123/45 108/149/46 107/148/45 
f 83/123/45 84/124/46 108/149/46 
f 84/124/46 109/150/47 108/149/46 
f 84/124/46 85/125/47 109/150/47 
f 85/125/47 87/127/24 109/150/47 
f 85/125/47 63/102/24 87/127/24 
f 87/127/24 110/151/25 111/152/24 
f 87/127/24 86/126/25 110/151/25 
f 86/126/25 112/153/26 110/151/25 
f 86/126/25 88/128/26 112/153/26 
f 88/128/26 113/154/27 112/153/26 
f 88/128/26 89/129/27 113/154/27 
f 89/129/27 114/155/28 113/154/27 
f 89/129/27 90/130/28 114/155/28 
f 90/130/28 115/156/29 114/155/28 
f 90/130/28 91/131/29 115/156/29 
f 91/131/29 116/157/30 115/156/29 
f 91/131/29 92/132/48 116/157/30 
f 92/134/48 117/158/31 116/159/30 
f 92/134/48 93/133/31 117/158/31 
f 93/133/31 118/160/32 117/158/31 
f 93/133/31 94/135/32 118/160/32 
f 94/135/32 119/161/33 118/160/32 
f 94/135/32 95/136/33 119/161/33 
f 95/136/33 120/162/34 119/161/33 
f 95/136/33 96/137/34 120/162/34 
f 96/137/34 121/163/35 120/162/34 
f 96/137/34 97/138/35 121/163/35 
f 97/138/35 122/164/36 121/163/35 
f 97/138/35 98/139/36 122/164/36 
f 98/139/36 123/165/37 122/164/36 
f 98/139/36 99/140/37 123/165/37 
f 99/140/37 124/166/38 123/165/37 
f 99/140/37 100/141/38 124/166/38 
f 100/141/38 125/167/39 124/166/38 
f 100/141/38 101/142/39 125/167/39 
f 101/142/39 126/168/40 125/167/39 
f 101/142/39 102/143/40 126/168/40 
f 102/143/40 127/169/41 126/168/40 
f 102/143/40 103/144/41 127/169/41 
f 103/144/41 128/170/42 127/169/41 
f 103/144/41 104/145/42 128/170/42 
f 104/145/42 129/171/43 128/170/42 
f 104/145/42 105/146/43 129/171/43 
f 105/146/43 130/172/44 129/171/43 
f 105/146/43 106/147/44 130/172/44 
f 106/147/44 131/173/45 130/172/44 
f 106/147/44 107/148/45 131/173/45 
f 107/148/45 132/174/46 131/173/45 
f 107/148/45 108/149/46 132/174/46 
f 108/149/46 133/175/47 132/174/46 
f 108/149/46 109/150/47 133/175/47 
f 109/150/47 111/152/24 133/175/47 
f 109/150/47 87/127/24 111/152/24 
f 111/152/24 134/176/25 135/177/24 
f 111/152/24 110/151/25 134/176/25 
f 110/151/25 136/178/26 134/176/25 
f 110/151/25 112/153/26 136/178/26 
f 112/153/26 137/179/27 136/178/26 
f 112/153/26 113/154/27 137/179/27 
f 113/154/27 138/180/28 137/179/27 
f 113/154/27 114/155/28 138/180/28 
f 114/155/28 139/181/29 138/180/28 
f 114/155/28 115/156/29 139/181/29 
f 115/156/29 140/182/30 139/181/29 
f 115/156/29 116/157/30 140/182/30 
f 116/159/30 141/183/31 140/184/30 
f 116/159/30 117/158/31 141/183/31 
f 117/158/31 142/185/32 141/183/31 
f 117/158/31 118/160/32 142/185/32 
f 118/160/32 143/186/33 142/185/32 
f 118/160/32 119/161/33 143/186/33 
f 119/161/33 144/187/34 143/186/33 
f 119/161/33 120/162/34 144/187/34 
f 120/162/34 145/188/35 144/187/34 
f 120/162/34 121/163/35 145/188/35 
f 121/163/35 146/189/36 145/188/35 
f 121/163/35 122/164/36 146/189/36 
f 122/164/36 147/190/37 146/189/36 
f 122/164/36 123/165/37 147/190/37 
f 123/165/37 148/191/38 147/190/37 
f 123/165/37 124/166/38 148/191/38 
f 124/166/38 149/192/39 148/191/38 
f 124/166/38 125/167/39 149/192/39 
f 125/167/39 150/193/40 149/192/39 
f 125/167/39 126/168/40 150/193/40 
f 126/168/40 151/194/41 150/193/40 
f 126/168/40 127/169/41 151/194/41 
f 127/169/41 152/195/42 151/194/41 
f 127/169/41 128/170/42 152/195/42 
f 128/170/42 153/196/43 152/195/42 
f 128/170/42 129/171/43 153/196/43 
f 129/171/43 154/197/44 153/196/43 
f 129/171/43 130/172/44 154/197/44 
f 130/172/44 155/198/45 154/197/44 
f 130/172/44 131/173/45 155/198/45 
f 131/173/45 156/199/46 155/198/45 
f 131/173/45 132/174/46 156/199/46 
f 132/174/46 157/200/47 156/199/46 
f 132/174/46 133/175/47 157/200/47 
f 133/175/47 135/177/24 157/200/47 
f 133/175/47 111/152/24 135/177/24 
f 135/177/24 158/201/49 158/201/50 
f 135/177/24 134/176/25 158/201/49 
f 134/176/25 158/201/51 158/201/49 
f 134/176/25 136/178/26 158/201/51 
f 136/178/26 158/201/52 158/201/51 
f 136/178/26 137/179/27 158/201/52 
f 137/179/27 158/201/53 158/201/52 
f 137/179/27 138/180/28 158/201/53 
f 138/180/28 158/201/54 158/201/53 
f 138/180/28 139/181/29 158/201/54 
f 139/181/29 158/201/55 158/201/54 
f 139/181/29 140/182/30 158/201/55 
f 140/182/30 158/201/56 158/201/55 
f 140/184/30 141/183/31 158/201/56 
f 141/183/31 158/201/57 158/201/56 
f 141/183/31 142/185/32 158/201/57 
f 142/185/32 158/201/58 158/201/57 
f 142/185/32 143/186/33 158/201/58 
f 143/186/33 158/201/59 158/201/58 
f 143/186/33 144/187/34 158/201/59 
f 144/187/34 158/201/60 158/201/59 
f 144/187/34 145/188/35 158/201/60 
f 145/188/35 158/201/61 158/201/60 
f 145/188/35 146/189/36 158/201/61 
f 146/189/36 158/201/62 158/201/61 
f 146/189/36 147/190/37 158/201/62 
f 147/190/37 158/201/63 158/201/62 
f 147/190/37 148/191/38 158/201/63 
f 148/191/38 158/201/64 158/201/63 
f 148/191/38 149/192/39 158/201/64 
f 149/192/39 158/201/65 158/201/64 
f 149/192/39 150/193/40 158/201/65 
f 150/193/40 158/201/66 158/201/65 
f 150/193/40 151/194/41 158/201/66 
f 151/194/41 158/201/67 158/201/66 
f 151/194/41 152/195/42 158/201/67 
f 152/195/42 158/201/68 158/201/67 
f 152/195/42 153/196/43 158/201/68 
f 153/196/43 158/201/69 158/201/68 
f 153/196/43 154/197/44 158/201/69 
f 154/197/44 158/201/70 158/201/69 
f 154/197/44 155/198/45 158/201/70 
f 155/198/45 158/201/71 158/201/70 
f 155/198/45 156/199/46 158/201/71 
f 156/199/46 158/201/72 158/201/71 
f 156/199/46 157/200/47 158/201/72 
f 157/200/47 158/201/50 158/201/72 
f 157/200/47 135/177/24 158/201/50 
f 158/201/73 158/201/73 158/201/73 
f 158/201/73 158/201/73 158/201/73 
f 158/201/73 158/201/73 158/201/73 
f 158/201/73 158/201/73 158/201/73 
f 158/201/73 158/201/73 158/201/73 
f 158/201/73 158/201/73 158/201/73 
f 158/201/73 158/201/73 158/201/73 
f 158/201/73 158/201/73 158/201/73 
f 158/201/73 158/201/73 158/201/73 
f 158/201/73 158/201/73 158/201/73 
f 158/201/73 158/201/73 158/201/73 
f 158/201/73 158/201/73 158/201/73 
f 158/201/73 158/201/73 158/201/73 
f 158/201/73 158/201/73 158/201/73 
f 158/201/73 158/201/73 158/201/73 
f 158/201/73 158/201/73 158/201/73 
f 158/201/73 158/201/73 158/201/73 
f 158/201/73 158/201/73 158/201/73 
f 158/201/73 158/201/73 158/201/73 
f 158/201/73 158/201/73 158/201/73 
f 158/201/73 158/201/73 158/201/73 
f 158/201/73 158/201/73 158/201/73 
f 158/201/73 158/201/73 158/201/73 
f 158/201/73 158/201/73 158/201/73 
# 288 faces

#
# object tail
#

v  -0.1495 0.0010 -0.3518
v  0.1690 0.0010 -0.3518
v  0.1690 -0.0010 -0.3518
v  -0.1495 -0.0010 -0.3518
v  0.0059 0.0204 -0.1231
v  0.0059 -0.0204 -0.1231
v  0.0136 -0.0204 -0.1231
v  0.0136 0.0204 -0.1231
v  0.0078 -0.1593 -0.3518
v  0.0078 0.1593 -0.3518
v  0.0117 0.1593 -0.3518
v  0.0117 -0.1593 -0.3518
v  -0.0107 -0.0039 -0.1231
v  0.0302 -0.0039 -0.1231
v  0.0302 0.0039 -0.1231
v  -0.0107 0.0039 -0.1231
# 16 vertices

vn -0.0000 -0.0000 -1.0000
vn 0.0000 0.0000 1.0000
vn -0.8272 0.0000 0.5620
vn -0.0000 -0.9964 -0.0845
vn 0.8272 0.0000 0.5620
vn 0.8272 -0.0000 0.5620
vn -0.0000 0.9964 -0.0845
vn 0.0000 0.9964 -0.0845
vn 0.0000 0.0000 -1.0000
vn -0.0000 -0.8272 0.5620
vn 0.0000 -0.8272 0.5620
vn 0.9967 0.0000 -0.0807
vn 0.9967 -0.0000 -0.0807
vn 0.0000 0.8272 0.5620
vn -0.9967 0.0000 -0.0807
# 15 vertex normals

vt 1.0000 0.0000 0.0000
vt 1.0000 1.0000 0.0000
vt 0.0000 1.0000 0.0000
vt 0.0000 0.0000 0.0000
# 4 texture coords

g tail
usemtl wire_196088225
f 159/202/74 160/203/74 161/204/74 
f 161/204/74 162/205/74 159/202/74 
f 163/205/75 164/202/75 165/203/75 
f 165/203/75 166/204/75 163/205/75 
f 159/205/76 162/202/76 164/203/76 
f 164/203/76 163/204/76 159/205/76 
f 162/205/77 161/202/77 165/203/77 
f 165/203/77 164/204/77 162/205/77 
f 161/205/78 160/202/78 166/203/79 
f 166/203/79 165/204/79 161/205/78 
f 160/205/80 159/202/80 163/203/81 
f 163/203/81 166/204/81 160/205/80 
f 167/202/82 168/203/82 169/204/82 
f 169/204/82 170/205/82 167/202/82 
f 171/205/75 172/202/75 173/203/75 
f 173/203/75 174/204/75 171/205/75 
f 167/205/83 170/202/83 172/203/84 
f 172/203/84 171/204/84 167/205/83 
f 170/205/85 169/202/85 173/203/86 
f 173/203/86 172/204/86 170/205/85 
f 169/205/87 168/202/87 174/203/87 
f 174/203/87 173/204/87 169/205/87 
f 168/205/88 167/202/88 171/203/88 
f 171/203/88 174/204/88 168/205/88 
# 24 faces

radius 0.351
